<svg width="11" height="12" viewBox="0 0 11 12" fill="none" xmlns="http://www.w3.org/2000/svg">
<path fill-rule="evenodd" clip-rule="evenodd" d="M10.3721 1.10746C9.97416 0.709512 9.32891 0.709565 8.93089 1.10758L5.56963 4.46884L2.27241 1.17162C1.87446 0.773668 1.22921 0.773721 0.831195 1.17173C0.433182 1.56975 0.433129 2.215 0.831076 2.61295L4.1283 5.91017L0.766769 9.2717C0.368756 9.66972 0.368702 10.315 0.76665 10.7129C1.1646 11.1109 1.80985 11.1108 2.20786 10.7128L5.56939 7.35127L8.8663 10.6482C9.26425 11.0461 9.90951 11.0461 10.3075 10.6481C10.7055 10.25 10.7056 9.60479 10.3076 9.20685L7.01073 5.90993L10.372 2.54867C10.77 2.15066 10.7701 1.50541 10.3721 1.10746Z" fill="#3F4C50"/>
</svg>
