<svg width="20" height="20" viewBox="0 0 20 20" fill="none" xmlns="http://www.w3.org/2000/svg">
<path d="M9.37549 13.5577C9.37549 13.2127 9.65549 12.9277 10.0005 12.9277C10.3455 12.9277 10.6255 13.2036 10.6255 13.5486V13.5577C10.6255 13.9027 10.3455 14.1827 10.0005 14.1827C9.65549 14.1827 9.37549 13.9027 9.37549 13.5577Z" fill="#8C9EA4"/>
<path d="M3.99645 17.015H16.0648C17.0206 16.965 17.7556 16.1508 17.7065 15.195C17.6956 15.0016 17.654 14.8108 17.5806 14.6325L11.5165 4.01915C11.0531 3.18165 9.99895 2.87831 9.16145 3.34248C8.87645 3.49915 8.64145 3.73415 8.48395 4.01915L2.41979 14.6325C2.05979 15.5191 2.48645 16.5291 3.37229 16.89C3.55229 16.9625 3.74229 17.0041 3.93562 17.015" stroke="#8C9EA4" stroke-width="1.5" stroke-linecap="round" stroke-linejoin="round"/>
<path d="M9.99186 11.1634V8.58008" stroke="#8C9EA4" stroke-width="1.5" stroke-linecap="round" stroke-linejoin="round"/>
</svg>
