<svg width="20" height="20" viewBox="0 0 20 20" fill="none" xmlns="http://www.w3.org/2000/svg">
<path fill-rule="evenodd" clip-rule="evenodd" d="M13.612 2.29102H6.38783C3.87033 2.29102 2.29199 4.07352 2.29199 6.59602V13.4027C2.29199 15.9252 3.86283 17.7077 6.38783 17.7077H13.6112C16.137 17.7077 17.7087 15.9252 17.7087 13.4027V6.59602C17.7087 4.07352 16.137 2.29102 13.612 2.29102Z" stroke="#8C9EA4" stroke-width="1.5" stroke-linecap="round" stroke-linejoin="round"/>
<path fill-rule="evenodd" clip-rule="evenodd" d="M8.91005 9.99841C8.91005 10.8501 8.21922 11.5417 7.36672 11.5417C6.51505 11.5417 5.82422 10.8501 5.82422 9.99841C5.82422 9.14674 6.51505 8.45508 7.36672 8.45508C8.21922 8.45508 8.91005 9.14674 8.91005 9.99841Z" stroke="#8C9EA4" stroke-width="1.5" stroke-linecap="round" stroke-linejoin="round"/>
<path d="M8.91016 10H14.1752V11.5433" stroke="#8C9EA4" stroke-width="1.5" stroke-linecap="round" stroke-linejoin="round"/>
<path d="M11.818 11.5414V9.99805" stroke="#8C9EA4" stroke-width="1.5" stroke-linecap="round" stroke-linejoin="round"/>
</svg>
