<svg width="20" height="20" viewBox="0 0 20 20" fill="none" xmlns="http://www.w3.org/2000/svg">
<path fill-rule="evenodd" clip-rule="evenodd" d="M5.39187 1.66745L5.41405 1.66889C5.85063 1.70507 6.22981 1.92203 6.57595 2.26022C7.23374 2.90267 8.64622 4.7774 8.75287 5.2876C8.87089 5.85678 8.7447 6.22645 8.36851 6.88038L8.27733 7.04155C8.1047 7.35684 8.07832 7.48702 8.13176 7.63609C8.95312 9.64628 10.3547 11.0477 12.342 11.8593C12.5302 11.9275 12.6723 11.8884 13.07 11.6603L13.2775 11.5429C13.8366 11.2362 14.191 11.1393 14.7136 11.2481C15.222 11.3546 17.0978 12.768 17.7393 13.425C18.077 13.7708 18.2945 14.1506 18.3323 14.616C18.3722 15.747 16.9922 17.3395 16.1503 17.8183C15.1929 18.5032 13.9779 18.4918 12.6156 17.8578C9.05324 16.3754 3.60401 10.961 2.15182 7.40295L2.06489 7.20393C1.51348 5.886 1.52543 4.7474 2.15732 3.889C2.7339 2.93415 4.28846 1.61642 5.39187 1.66745ZM5.32452 2.88599L5.25106 2.88976C4.68473 2.965 3.54903 3.94274 3.17081 4.56463L3.10548 4.66186C2.77966 5.19272 2.81742 5.92174 3.27104 6.91993L3.35773 7.12286C4.82067 10.4062 9.88594 15.4012 13.1068 16.742L13.2842 16.8209C14.2161 17.2159 14.9215 17.1983 15.4926 16.7934L15.5349 16.7662C15.7116 16.6434 16.1191 16.2731 16.433 15.9109C16.8739 15.4021 17.1237 14.936 17.1156 14.6878C17.1068 14.5817 17.0249 14.4386 16.8671 14.277C16.3903 13.7887 14.656 12.4819 14.4643 12.4418C14.2831 12.404 14.1343 12.4547 13.7275 12.6888L13.5229 12.8037C12.9235 13.1269 12.501 13.2138 11.9041 12.9971C9.59076 12.0529 7.94844 10.4108 6.99424 8.07419C6.76822 7.44944 6.88989 7.00741 7.28293 6.32238L7.37658 6.15762C7.55513 5.83523 7.59292 5.69844 7.55927 5.53618C7.51899 5.34347 6.21309 3.61019 5.72407 3.13259C5.56214 2.97437 5.41986 2.89296 5.31337 2.88413L5.32452 2.88599Z" fill="#8C9EA4"/>
</svg>
